<svg xmlns="http://www.w3.org/2000/svg" version="1.1" xmlns:xlink="http://www.w3.org/1999/xlink" xmlns:svgjs="http://svgjs.dev/svgjs" width="1000" height="750" viewBox="0 0 1000 750"><rect width="1000" height="750" fill="#ffffff"></rect><g transform="matrix(0.834,0,0,0.834,82.49454545454546,115.4193570850203)"><svg viewBox="0 0 396 247" data-background-color="#ffffff" preserveAspectRatio="xMidYMid meet" height="623" width="1000" xmlns="http://www.w3.org/2000/svg" xmlns:xlink="http://www.w3.org/1999/xlink"><g id="tight-bounds" transform="matrix(1,0,0,1,0.2400000000000091,-0.09999999999999432)"><svg viewBox="0 0 395.52 247.2" height="247.2" width="395.52"><g><svg></svg></g><g><svg viewBox="0 0 395.52 247.2" height="247.2" width="395.52"><g transform="matrix(1,0,0,1,39.55199999999999,81.4480314476335)"><svg viewBox="0 0 316.416 84.303937104733" height="84.303937104733" width="316.416"><g><svg viewBox="0 0 316.416 84.303937104733" height="84.303937104733" width="316.416"><g transform="matrix(1,0,0,1,0,61.291864377460264)"><svg viewBox="0 0 316.416 23.01207272727273" height="23.01207272727273" width="316.416"><g><svg viewBox="0 0 316.416 23.01207272727273" height="23.01207272727273" width="316.416"><g><svg viewBox="0 0 316.416 23.01207272727273" height="23.01207272727273" width="316.416"><g transform="matrix(1,0,0,1,0,0)"><svg width="316.416" viewBox="5 -35.5 491.58000000000004 36" height="23.01207272727273" data-palette-color="#0063db"><g class="undefined-text-0" data-fill-palette-color="primary" id="text-0"><path d="M5-6.3L8.5-10.7Q11.15-7.7 14.05-6.03 16.95-4.35 21.2-4.35L21.2-4.35Q23.45-4.35 25.55-4.95 27.65-5.55 29-6.73 30.35-7.9 30.35-9.7L30.35-9.7Q30.35-12.2 27.63-13.25 24.9-14.3 20-15L20-15Q13.9-15.9 10.33-18.3 6.75-20.7 6.75-25.35L6.75-25.35Q6.75-28.5 8.68-30.78 10.6-33.05 13.85-34.27 17.1-35.5 21.05-35.5L21.05-35.5Q25.95-35.5 29.5-33.9 33.05-32.3 35.15-29.35L35.15-29.35 31.45-25.45Q29.7-27.75 27.05-29.2 24.4-30.65 20.9-30.65L20.9-30.65Q17.3-30.65 14.88-29.38 12.45-28.1 12.45-25.8L12.45-25.8Q12.45-24 13.63-22.93 14.8-21.85 16.93-21.23 19.05-20.6 21.9-20.2L21.9-20.2Q24.65-19.8 27.18-19.18 29.7-18.55 31.7-17.48 33.7-16.4 34.88-14.75 36.05-13.1 36.05-10.65L36.05-10.65Q36.05-7.25 34.2-4.75 32.35-2.25 28.95-0.88 25.55 0.5 20.95 0.5L20.95 0.5Q16 0.5 12-1.1 8-2.7 5-6.3L5-6.3ZM48.75-35L54.15-35 54.15-19.9 76.05-19.9 76.05-35 81.45-35 81.45 0 76.05 0 76.05-14.7 54.15-14.7 54.15 0 48.75 0 48.75-35ZM133.45-17.5L133.45-17.5Q133.45-13.7 132-10.43 130.55-7.15 127.9-4.7 125.25-2.25 121.65-0.88 118.05 0.5 113.7 0.5L113.7 0.5Q109.4 0.5 105.77-0.88 102.15-2.25 99.52-4.7 96.9-7.15 95.45-10.43 94-13.7 94-17.5L94-17.5Q94-21.3 95.45-24.58 96.9-27.85 99.52-30.3 102.15-32.75 105.77-34.13 109.4-35.5 113.7-35.5L113.7-35.5Q118.05-35.5 121.65-34.13 125.25-32.75 127.9-30.3 130.55-27.85 132-24.58 133.45-21.3 133.45-17.5ZM127.95-17.5L127.95-17.5Q127.95-21.15 126.12-24.03 124.3-26.9 121.07-28.58 117.85-30.25 113.7-30.25L113.7-30.25Q109.5-30.25 106.3-28.58 103.1-26.9 101.3-24.03 99.5-21.15 99.5-17.5L99.5-17.5Q99.5-13.85 101.3-10.98 103.1-8.1 106.3-6.43 109.5-4.75 113.7-4.75L113.7-4.75Q117.85-4.75 121.07-6.43 124.3-8.1 126.12-11 127.95-13.9 127.95-17.5ZM145.99-35L151.29-35 164.99-16.35 178.79-35 183.99-35 183.99 0 178.59 0 178.59-14.65Q178.59-17.9 178.72-20.8 178.84-23.7 179.14-26.55L179.14-26.55 166.59-10.05 163.29-10.05 150.84-26.55Q151.14-23.65 151.27-20.78 151.39-17.9 151.39-14.65L151.39-14.65 151.39 0 145.99 0 145.99-35ZM232.54 0L226.64 0 222.89-8.4 204.39-8.4 200.59 0 194.99 0 210.79-35 216.84-35 232.54 0ZM210.94-22.8L210.94-22.8 206.74-13.6 220.54-13.6 216.24-23Q215.59-24.6 214.94-26.15 214.29-27.7 213.64-29.45L213.64-29.45Q212.94-27.65 212.29-26.03 211.64-24.4 210.94-22.8Z" fill="#0063db" data-fill-palette-color="primary"></path><path d="M240.14-35L245.44-35 259.14-16.35 272.94-35 278.14-35 278.14 0 272.74 0 272.74-14.65Q272.74-17.9 272.87-20.8 272.99-23.7 273.29-26.55L273.29-26.55 260.74-10.05 257.44-10.05 244.99-26.55Q245.29-23.65 245.42-20.78 245.54-17.9 245.54-14.65L245.54-14.65 245.54 0 240.14 0 240.14-35ZM326.69 0L320.79 0 317.04-8.4 298.54-8.4 294.74 0 289.14 0 304.94-35 310.99-35 326.69 0ZM305.09-22.8L305.09-22.8 300.89-13.6 314.69-13.6 310.39-23Q309.74-24.6 309.09-26.15 308.44-27.7 307.79-29.45L307.79-29.45Q307.09-27.65 306.44-26.03 305.79-24.4 305.09-22.8ZM367.39-24.1L367.39-24.1Q367.39-20.55 365.21-17.73 363.04-14.9 359.69-13.7L359.69-13.7 369.19 0.05 362.49 0 353.59-13 343.09-13 343.09 0 337.69 0 337.69-35 356.14-35Q359.09-35 361.64-33.6 364.19-32.2 365.79-29.75 367.39-27.3 367.39-24.1ZM354.84-29.8L354.84-29.8 343.09-29.8 343.09-18.2 355.34-18.2Q357.14-18.2 358.59-19.03 360.04-19.85 360.86-21.2 361.69-22.55 361.69-24.1L361.69-24.1Q361.69-25.75 360.76-27.05 359.84-28.35 358.26-29.08 356.69-29.8 354.84-29.8ZM387.93-10.45L387.93 0 382.53 0 382.53-35 387.93-35 387.93-16.7 396.03-23.45 409.63-35 417.28-35 400.28-20.8 416.93 0 409.93 0 396.18-17.35 387.93-10.45ZM456.48 0L429.98 0 429.98-35 456.48-35 456.48-29.8 435.38-29.8 435.38-20.55 453.73-20.55 453.73-15.35 435.38-15.35 435.38-5.2 456.48-5.2 456.48 0ZM484.23 0L478.83 0 478.83-29.8 466.83-29.8 466.83-35 496.58-35 496.58-29.8 484.23-29.8 484.23 0Z" fill="#d90000" data-fill-palette-color="accent"></path></g></svg></g></svg></g></svg></g></svg></g><g transform="matrix(1,0,0,1,132.9946658924335,0)"><svg viewBox="0 0 50.42666821513299 50.42666821513299" height="50.42666821513299" width="50.42666821513299"><g><svg></svg></g><g id="icon-0"><svg viewBox="0 0 50.42666821513299 50.42666821513299" height="50.42666821513299" width="50.42666821513299"><g><path d="M0 25.213c0-13.925 11.288-25.213 25.213-25.213 13.925 0 25.213 11.288 25.214 25.213 0 13.925-11.288 25.213-25.214 25.214-13.925 0-25.213-11.288-25.213-25.214zM25.213 48.351c12.779 0 23.138-10.359 23.138-23.138 0-12.779-10.359-23.138-23.138-23.138-12.779 0-23.138 10.359-23.138 23.138 0 12.779 10.359 23.138 23.138 23.138z" data-fill-palette-color="accent" fill="#d90000" stroke="transparent"></path></g><g transform="matrix(1,0,0,1,14.05053832698371,15.765802563503168)"><svg viewBox="0 0 22.32559156116557 18.895063088126655" height="18.895063088126655" width="22.32559156116557"><g><svg xmlns="http://www.w3.org/2000/svg" viewBox="18.499999409900223 23.289956117611673 61.890000590099774 52.38004388238833" x="0" y="0" height="18.895063088126655" width="22.32559156116557" class="icon-gn-0" data-fill-palette-color="accent" id="gn-0"><g data-name="Layer 2" fill="#d90000" data-fill-palette-color="accent"><path d="M71 25a4.54 4.54 0 0 0-3.57-1.71h-36A4.51 4.51 0 0 0 27.92 25L18.83 36.31a1.5 1.5 0 0 0-0.33 0.94 7.41 7.41 0 0 0 5.89 7.22V67.17a1.5 1.5 0 0 0 1.5 1.5H73a1.5 1.5 0 0 0 1.5-1.5V44.47a7.41 7.41 0 0 0 5.89-7.18s0 0 0-0.06a1.49 1.49 0 0 0-0.41-1ZM53.74 65.67H27.39V44.46a7.4 7.4 0 0 0 4.39-2.77 7.38 7.38 0 0 0 11.78 0 7.36 7.36 0 0 0 10.17 1.55Zm17.78 0H56.74V43.13s0 0 0-0.05a7.36 7.36 0 0 0 10.4-1.38 7.4 7.4 0 0 0 4.39 2.77Zm1.5-24a4.4 4.4 0 0 1-4.39-4.32v-0.06h0a1.5 1.5 0 0 0-3 0 4.39 4.39 0 0 1-8.78 0.06v-0.06h0a1.5 1.5 0 0 0-3 0 4.39 4.39 0 0 1-8.78 0.06v-0.06h0a1.5 1.5 0 0 0-3 0 4.39 4.39 0 0 1-8.78 0 1.5 1.5 0 0 0-3 0 4.39 4.39 0 0 1-8.75 0.49l8.73-10.91a1.53 1.53 0 0 1 1.2-0.58h36a1.56 1.56 0 0 1 1.22 0.59l8.72 10.9A4.4 4.4 0 0 1 73 41.63Z" fill="#d90000" data-fill-palette-color="accent"></path><path d="M66.81 29.44H32.56a1.5 1.5 0 0 0 0 3H66.81a1.5 1.5 0 1 0 0-3Z" fill="#d90000" data-fill-palette-color="accent"></path><path d="M73 72.67H25.89a1.5 1.5 0 1 0 0 3H73a1.5 1.5 0 0 0 0-3Z" fill="#d90000" data-fill-palette-color="accent"></path><circle cx="60.21" cy="53.97" r="1.5" fill="#d90000" data-fill-palette-color="accent"></circle><path d="M35.29 48.31a1.5 1.5 0 0 0-2.12 0L30.45 51a1.5 1.5 0 1 0 2.12 2.12l2.72-2.72A1.5 1.5 0 0 0 35.29 48.31Z" fill="#d90000" data-fill-palette-color="accent"></path><path d="M43.27 50.43a1.5 1.5 0 0 0-2.12-2.12l-7 7a1.5 1.5 0 1 0 2.12 2.12Z" fill="#d90000" data-fill-palette-color="accent"></path><path d="M48.34 48.31L36.57 60.08a1.5 1.5 0 1 0 2.12 2.12L50.46 50.43a1.5 1.5 0 0 0-2.12-2.12Z" fill="#d90000" data-fill-palette-color="accent"></path></g></svg></g></svg></g></svg></g></svg></g><g></g></svg></g></svg></g><g><path d="M0 247.2v-247.2h395.52v247.2zM393.445 245.125v-243.05h-391.37v243.05z" fill="#0063db" fill-rule="nonzero" stroke="none" stroke-width="1" stroke-linecap="butt" stroke-linejoin="miter" stroke-miterlimit="10" stroke-dasharray="" stroke-dashoffset="0" font-family="none" font-weight="none" font-size="none" text-anchor="none" style="mix-blend-mode: normal" data-fill-palette-color="tertiary"></path></g></svg></g><defs></defs></svg><rect width="395.52" height="247.2" fill="none" stroke="none" visibility="hidden"></rect></g></svg></g></svg>